<svg xmlns="http://www.w3.org/2000/svg" width="101" height="33"><g fill="#FFF"><path d="M4.599 19.866H.632v.384c0 3.967 4.18 6.953 8.36 6.953 4.308 0 8.36-2.688 8.36-6.953 0-3.412-2.815-4.692-5.63-5.289-1.28-.256-7.123-.597-7.123-2.431 0-1.28 1.45-2.943 4.393-2.943 2.645 0 4.393 2.004 4.393 2.943v.426h3.967v-.426c0-3.967-4.521-6.91-8.36-6.91-4.095 0-8.36 2.516-8.36 6.91 0 3.497 2.73 4.905 5.588 5.502 1.151.256 7.165.725 7.165 2.218 0 1.237-1.322 2.986-4.393 2.986-2.858 0-4.393-1.962-4.393-2.986v-.384zm25.821-9.682V6.217h-6.057V1.013h-3.967v17.318a8.1 8.1 0 0 0 8.104 8.104h1.92v-3.967H28.5a4.114 4.114 0 0 1-4.137-4.137v-8.147h6.057zM86.096 6.04h-3.967v12.29a8.1 8.1 0 0 0 8.104 8.105h1.92v-3.967h-1.92a4.114 4.114 0 0 1-4.137-4.137V6.04zm-48.666.177h-3.966v20.175h3.966zm20.319 17.189-2.815-2.772c-2.389 2.389-6.313 2.389-8.702 0-5.715-5.758 2.986-14.46 8.702-8.701l2.815-2.816a10.117 10.117 0 0 0-14.332 0c-3.924 3.925-3.924 10.365 0 14.29a10.117 10.117 0 0 0 14.332 0zm21.854-17.36h-6.227l-8.616 7.166V.928h-3.967v25.464h3.967v-7.166l8.7 7.166h6.186L67.319 16.198z"/><path d="M96.665 22.681c0 3.626-3.625 6.142-6.185 6.142h-6.142v3.967h6.142c5.588 0 10.152-4.521 10.152-10.109V6.516h-3.967V22.68z"/></g></svg>